<svg xmlns="http://www.w3.org/2000/svg" width="24" height="24" viewBox="0 0 24 24" fill="none" stroke="currentColor" stroke-width="2" stroke-linecap="round" stroke-linejoin="round">
  <path d="M11.95 20.482c.306.28.743.28.986 0 1.637-1.396 3.48-3.003 5.109-4.72C21.46 12.35 23 9.58 23 7.02 23 3.694 20.312 1 17.002 1c-2.296 0-4.322 1.5-5.002 3.5C11.322 2.5 9.296 1 7.002 1 3.692 1 1 3.694 1 7.02c0 2.56 1.54 5.33 4.955 8.742 1.629 1.717 3.472 3.324 5.109 4.72zM12 11a2.5 2.5 0 1 0 0-5 2.5 2.5 0 0 0 0 5zM7.5 13.438c1.886-.754 3.44-2.454 4.5-4.438" />
</svg>
