<svg width="24" height="24" viewBox="0 0 24 24" fill="none" xmlns="http://www.w3.org/2000/svg">
<path d="M12 22C12 22 20 18 20 12V5L12 2L4 5V12C4 18 12 22 12 22Z" stroke="hsl(var(--primary))" stroke-width="2" stroke-linecap="round" stroke-linejoin="round"/>
<path d="M12 11.5C13.3807 11.5 14.5 10.3807 14.5 9C14.5 7.61929 13.3807 6.5 12 6.5C10.6193 6.5 9.5 7.61929 9.5 9C9.5 10.3807 10.6193 11.5 12 11.5Z" stroke="hsl(var(--primary))" stroke-width="2" stroke-linecap="round" stroke-linejoin="round"/>
<path d="M12 12V17C12 17 14 15 16 17" stroke="hsl(var(--primary))" stroke-width="2" stroke-linecap="round" stroke-linejoin="round"/>
<path d="M12 12V17C12 17 10 15 8 17" stroke="hsl(var(--primary))" stroke-width="2" stroke-linecap="round" stroke-linejoin="round"/>
</svg>
